<?xml version="1.0" encoding="utf-8"?>
<!-- Generator: Adobe Illustrator 20.1.0, SVG Export Plug-In . SVG Version: 6.00 Build 0)  -->
<svg version="1.1" id="Layer_1" xmlns="http://www.w3.org/2000/svg" xmlns:xlink="http://www.w3.org/1999/xlink" x="0px" y="0px"
	 viewBox="0 0 768.7 315.6" style="enable-background:new 0 0 768.7 315.6;" xml:space="preserve">
<style type="text/css">
	.st0{fill:#4D4D4E;}
</style>
<path class="st0" d="M331.3,77.1l-0.6,0.3l-0.5-0.2c-3.3-0.4-6.1-1.9-8.5-4.2c-2.9-2.8-4.3-6.3-4.3-10.3c0-4,1.4-7.4,4.3-10.3
	l4.1-3.7h0l0.3-0.5l-0.2-0.5l0,0l-0.1,0l-0.2-0.1l-0.3-0.1h-7.3c-0.4-0.9-13.6-31.4-13.7-31.7V6.3c0-0.4-0.4-0.8-0.8-0.8h-15.2
	c-0.4,0-0.8,0.4-0.8,0.8v239.9c0,0.4,0.4,0.8,0.8,0.8l43.1,0.4l0.2,0l0.1-0.1l0.2-0.1l0.1-0.1l0.1-0.2l0.1-0.1l0-0.2l0-0.1V77.9
	C332.1,77.5,331.8,77.1,331.3,77.1"/>
<path class="st0" d="M440.2,5.6H425c-0.4,0-0.8,0.4-0.8,0.8v9.2c-0.1,0.3-13.4,30.8-13.8,31.7h-7.2l-0.1,0l-0.2,0l-0.1,0.1l-0.1,0.1
	l-0.1,0.1l-0.1,0.1v0l0,0.1l0,0.2v0l0,0.1l0.1,0.1l0.1,0.1l0.1,0.1l0.1,0.1l0.1,0.1c0.6,0.3,1.7,1.2,3.8,3.6c2.9,3,4.3,6.3,4.3,10.3
	c0,4-1.4,7.4-4.3,10.3c-2.4,2.3-5.3,3.8-8.5,4.2l-0.5,0.3l-0.6-0.3c-0.5,0-0.8,0.4-0.8,0.8v168.7l0,0.1l0,0.2l0,0.1l0.1,0.2l0.1,0
	l0.2,0.1l0.1,0.1l0.2,0l43.1-0.4c0.4,0,0.8-0.3,0.8-0.8V6.3C441,5.9,440.6,5.6,440.2,5.6"/>
<path class="st0" d="M49.8,74.4v19.1c8-7.8,16.7-13.6,26-17.5c9.3-3.9,19.3-5.8,29.9-5.8c23,0,42.6,8.5,58.8,25.6
	c16.1,17,24.2,38.9,24.2,65.6c0,25.7-8.3,47.2-25,64.6c-16.7,17.3-36.4,26-59.3,26c-10.2,0-19.7-1.8-28.4-5.3
	c-8.8-3.6-17.5-9.4-26.1-17.5v81.8H5.6V74.4H49.8 M96.4,110c-14,0-25.5,4.7-34.7,14c-9.2,9.3-13.8,21.5-13.8,36.6
	c0,15.3,4.6,27.8,13.8,37.3c9.2,9.5,20.8,14.2,34.7,14.2c13.5,0,24.9-4.8,34.1-14.4c9.2-9.6,13.9-21.9,13.9-36.9
	c0-14.8-4.6-27-13.6-36.5C121.7,114.7,110.2,110,96.4,110"/>
<path class="st0" d="M234.9,3.7c7.7,0,14.3,2.7,19.8,8.2c5.5,5.5,8.2,12.1,8.2,19.9c0,7.7-2.7,14.2-8.2,19.6
	c-5.4,5.4-12,8.1-19.5,8.1c-7.8,0-14.4-2.8-19.9-8.3c-5.5-5.5-8.3-12.2-8.3-20.1c0-7.6,2.7-14,8.2-19.4
	C220.7,6.4,227.3,3.7,234.9,3.7 M212.7,74.4H257v173.1h-44.3V74.4z"/>
<path class="st0" d="M601.3,76h43.5v169.6h-43.5v-18c-8.5,7.9-17,13.6-25.6,17.1c-8.6,3.5-17.8,5.2-27.8,5.2
	c-22.4,0-41.8-8.5-58.1-25.5c-16.4-17-24.5-38.1-24.5-63.3c0-26.2,7.9-47.6,23.7-64.3c15.8-16.7,35-25.1,57.6-25.1
	c10.4,0,20.2,1.9,29.3,5.7c9.1,3.8,17.6,9.5,25.3,17.2V76 M555.4,110.7c-13.5,0-24.7,4.6-33.7,13.9c-8.9,9.3-13.4,21.2-13.4,35.8
	c0,14.6,4.5,26.7,13.6,36.1c9.1,9.4,20.3,14.2,33.6,14.2c13.7,0,25.1-4.7,34.1-13.9c9-9.3,13.6-21.5,13.6-36.6
	c0-14.8-4.5-26.7-13.6-35.8C580.7,115.3,569.3,110.7,555.4,110.7"/>
<path class="st0" d="M670.6,76h37.9v21.4c4-8.4,9.2-14.8,15.8-19.2c6.5-4.3,13.7-6.5,21.5-6.5c5.5,0,11.3,1.4,17.3,4.4l-13.3,36.5
	c-5-2.5-9.2-3.7-12.4-3.7c-6.6,0-12.1,4-16.7,12.2c-4.5,8.1-6.8,24-6.8,47.7l0.2,8.3v68.6h-43.5V76"/>
</svg>
